# xmcd
#
# Track frame offsets:
# 150
# 28788
# 49340
# 61924
# 78209
# 98701
# 113223
# 130069
# 150708
# 168294
# 185751
# 201341
# 220269
# 237483
# 254286
# 269398
# 286606
# 306696
# 323250
#
# Disc length: 4511 seconds
#
#
# Revision: 1
# Processed by: cddbd v1.5.2PL0 Copyright (c) Steve Scherf et al.
# Submitted via: FreeRIP 2.96 
#
DISCID=0f119d13
DTITLE=Grupo Rodeio - Grupo Rodeio
DYEAR=1900
DGENRE=Gaúcha
TTITLE0=A voz do rio Grande
TTITLE1=Abram cancha para o Rio Grande
TTITLE2=Liberdade Xucra
TTITLE3=De tranco e Vanera
TTITLE4=Lá vem o tche
TTITLE5=O que tiver que vir vira
TTITLE6=Apaixonado
TTITLE7=É sadado o dia
TTITLE8=Fusca
TTITLE9=Pancada de Vanera
TTITLE10=Grupo Rodeio 11
TTITLE11=Grupo Rodeio 12
TTITLE12=Grupo Rodeio 13
TTITLE13=Grupo Rodeio 14
TTITLE14=Grupo Rodeio 15
TTITLE15=Grupo Rodeio 16
TTITLE16=Grupo Rodeio 17
TTITLE17=Grupo Rodeio 18
TTITLE18=Grupo Rodeio 19
EXTD=
EXTT0=
EXTT1=
EXTT2=
EXTT3=
EXTT4=
EXTT5=
EXTT6=
EXTT7=
EXTT8=
EXTT9=
EXTT10=
EXTT11=
EXTT12=
EXTT13=
EXTT14=
EXTT15=
EXTT16=
EXTT17=
EXTT18=
PLAYORDER=
